<?xml version="1.0" encoding="utf-8"?><svg xmlns="http://www.w3.org/2000/svg" xmlns:xlink="http://www.w3.org/1999/xlink"><symbol viewBox="0 0 14 23" id="arrow" xmlns="http://www.w3.org/2000/svg"><path d="M2.649 0L0 2.683 8.703 11.5 0 20.317 2.649 23 14 11.5 2.649 0z"/></symbol><symbol viewBox="0 0 34 40" id="basket" xmlns="http://www.w3.org/2000/svg"><path d="M33.875 35.313c0 .862-.7 1.562-1.563 1.562H30.75v1.563a1.562 1.562 0 11-3.125 0v-1.563h-1.563a1.562 1.562 0 110-3.125h1.563v-1.563a1.562 1.562 0 113.125 0v1.563h1.563c.862 0 1.562.7 1.562 1.563zm0-24.376v15a1.562 1.562 0 11-3.125 0V12.5h-3.125v4.688a1.562 1.562 0 11-3.125 0V12.5h-15v4.688a1.562 1.562 0 11-3.125 0V12.5H3.25v24.375h16.563a1.562 1.562 0 110 3.125H1.688c-.863 0-1.563-.7-1.563-1.563v-27.5c0-.862.7-1.562 1.563-1.562h4.76C7.07 4.103 11.565 0 17 0s9.93 4.103 10.551 9.375h4.762c.862 0 1.562.7 1.562 1.563zm-9.48-1.562c-.597-3.543-3.685-6.25-7.395-6.25-3.71 0-6.798 2.707-7.395 6.25h14.79z"/></symbol><symbol viewBox="0 0 12 9" id="check" xmlns="http://www.w3.org/2000/svg"><path fill-rule="evenodd" clip-rule="evenodd" d="M4.471 7.029L10.667.833l.942.943-7.138 7.138L.667 5.11l.942-.943 2.862 2.862z"/></symbol><symbol viewBox="0 0 29 29" id="close" xmlns="http://www.w3.org/2000/svg"><path d="M8.074 21.288a.711.711 0 01-1.007-.007.702.702 0 010-1l6.065-6.064-6.061-6.06a.72.72 0 010-1.015.711.711 0 011.007.007l6.061 6.06 6.064-6.063a.711.711 0 011.007-.008.72.72 0 010 1.014l-6.064 6.064 6.06 6.061a.711.711 0 11-1.007 1.007l-6.06-6.06-6.065 6.064z"/></symbol><symbol viewBox="0 0 50 50" id="discount-icon1" xmlns="http://www.w3.org/2000/svg"><path d="M23.108 5.545L13.643 3.7a.98.98 0 00-1.036.47c-.142.245-3.484 6.069-4.938 13.518a23.86 23.86 0 00-.448 5.048c.016 1.27.169 2.55.454 3.788.082.35.176.699.284 1.042.807 2.579 2.194 4.34 3.96 5.068L9.875 43.651l-4.403-.859a2.426 2.426 0 00-2.69 1.458 3.015 3.015 0 00-.151.552c-.035.179-.074.356-.086.538a2.41 2.41 0 00.483 1.614c.355.47.877.794 1.455.907l10.74 2.096a2.448 2.448 0 002.451-1.015c.14-.205.247-.432.314-.67.082-.293.15-.61.164-.913a2.418 2.418 0 00-.485-1.563 2.42 2.42 0 00-1.456-.908l-4.412-.861 2.045-11.021c1.803-.017 3.639-1.014 5.283-2.884.135-.153.263-.31.39-.469 1.207-1.505 2.218-3.402 2.96-5.53.382-1.099.685-2.227.907-3.37 1.454-7.448.546-14.102.507-14.382a.981.981 0 00-.783-.826zM16.118 47a.52.52 0 01.061.373 1.7 1.7 0 01-.082.362c-.08.206-.276.34-.5.297L4.86 45.937a.448.448 0 01-.305-.226c-.086-.157-.04-.32-.008-.485.028-.148.05-.294.167-.4a.449.449 0 01.383-.109l10.74 2.096c.156.03.244.13.282.187zM13.973 5.76l8.054 1.572c.187 1.864.562 7.26-.567 13.045-.09.461-.194.915-.31 1.36H9.183c.032-1.19.168-2.427.412-3.675C10.72 12.289 13.099 7.42 13.973 5.76zm5.736 19.92a14.623 14.623 0 01-1.82 2.87c-1.053 1.28-2.164 2.088-3.233 2.376a3.137 3.137 0 01-1.645.011c-.91-.253-1.704-.957-2.33-2.002-.724-1.216-1.108-2.625-1.316-4.016a17.17 17.17 0 01-.136-1.22h11.317c-.243.674-.52 1.337-.837 1.98z"/><path d="M19.74 17.019c.031.002.061.004.091.004a.98.98 0 00.976-.892c.184-2.016.235-4.1.152-6.194a.98.98 0 10-1.96.077c.08 2.01.031 4.007-.145 5.94a.98.98 0 00.887 1.065zm27.676 28.022c-.07-.359-.146-.722-.32-1.047a2.414 2.414 0 00-2.567-1.201l-4.408.86-2.15-11.024c3.78-1.57 5.63-7.831 4.242-14.942-1.454-7.45-4.796-13.273-4.938-13.518a.98.98 0 00-1.036-.47l-9.465 1.846a.982.982 0 00-.783.826c-.04.28-.947 6.934.506 14.382 1.388 7.111 5.456 12.217 9.549 12.252l2.15 11.023-4.406.86a2.446 2.446 0 00-1.884 1.823c-.125.54-.042 1.118.129 1.638a2.406 2.406 0 002.743 1.608l10.74-2.096a2.426 2.426 0 001.898-2.82zM27.855 7.333l8.054-1.572c.874 1.66 3.253 6.528 4.38 12.302.05.256.094.51.135.765H28.153c-.791-5.169-.467-9.797-.298-11.495zm17.57 38.416a.44.44 0 01-.283.187l-10.739 2.096a.45.45 0 01-.383-.108c-.116-.105-.14-.256-.168-.402-.028-.15-.07-.308-.006-.454a.447.447 0 01.32-.255l10.738-2.096c.22-.043.42.095.5.296.082.207.154.538.02.736zm-9.526-14.71c-.846-.05-1.637-.437-2.31-.932-.674-.495-1.255-1.109-1.769-1.766a13.622 13.622 0 01-.862-1.246 18.054 18.054 0 01-1.367-2.735 21.801 21.801 0 01-1.084-3.571H40.65c.125 1.784.046 3.61-.368 5.354a11.5 11.5 0 01-.449 1.467c-.688 1.799-1.721 2.966-2.929 3.319-.326.094-.666.13-1.005.11zM25.776.98a.98.98 0 00-1.961 0v3.186a.98.98 0 101.96 0V.98zm-4.957 2.73a.98.98 0 101.676-1.018L21.287.702a.98.98 0 00-1.676 1.019l1.208 1.99zm6.8.33a.98.98 0 001.347-.33l1.208-1.99A.98.98 0 1028.498.704l-1.208 1.99a.98.98 0 00.329 1.346z"/><path d="M35.227 12.209c.373 1.022.71 2.058 1.006 3.106.116.414.18.85.58 1.09a.99.99 0 001.127-.083.991.991 0 00.325-1.01 30.802 30.802 0 00-.435-1.515c-.16-.519-.33-1.035-.508-1.548-.088-.254-.167-.517-.273-.764a.978.978 0 00-1.495-.393.99.99 0 00-.327 1.117zm-14.964 7.717a.985.985 0 11-1.97 0 .985.985 0 011.97 0zM35.656 8.258a.985.985 0 11-1.97 0 .985.985 0 011.97 0z"/></symbol><symbol viewBox="0 0 50 50" id="discount-icon2" xmlns="http://www.w3.org/2000/svg"><g clip-path="url(#fclip0)"><path d="M46.875 25H3.125A3.129 3.129 0 010 21.875v-8.333a3.129 3.129 0 013.125-3.125h43.75A3.129 3.129 0 0150 13.542v8.333A3.129 3.129 0 0146.875 25zM3.125 12.5c-.573 0-1.042.467-1.042 1.042v8.333c0 .575.47 1.042 1.042 1.042h43.75c.573 0 1.042-.467 1.042-1.042v-8.333c0-.575-.47-1.042-1.042-1.042H3.125z"/><path d="M40.625 50H9.375a5.214 5.214 0 01-5.208-5.208V23.958a1.042 1.042 0 012.083 0v20.834a3.129 3.129 0 003.125 3.125h31.25a3.129 3.129 0 003.125-3.125V23.958a1.042 1.042 0 012.083 0v20.834A5.214 5.214 0 0140.625 50zM25 12.5c-.075 0-.15-.008-.225-.025-1.313-.292-7.952-1.831-9.706-3.585a5.16 5.16 0 01-1.528-3.682c0-1.391.542-2.7 1.525-3.683a5.212 5.212 0 017.365 0c1.754 1.752 3.294 8.394 3.585 9.708.078.348-.029.71-.28.96A1.036 1.036 0 0125 12.5zM18.75 2.085a3.118 3.118 0 00-3.125 3.123c0 .836.325 1.62.914 2.21.81.811 4.198 1.905 7.052 2.634C22.861 7.198 21.77 3.81 20.959 3a3.104 3.104 0 00-2.208-.915z"/><path d="M25 12.5a1.04 1.04 0 01-1.019-1.265c.292-1.314 1.831-7.954 3.586-9.708a5.21 5.21 0 017.364 0 5.16 5.16 0 011.527 3.681c0 1.392-.541 2.7-1.525 3.684-1.754 1.754-8.393 3.293-9.706 3.585A1.214 1.214 0 0125 12.5zm6.25-10.415c-.8 0-1.602.305-2.21.913-.81.81-1.902 4.198-2.634 7.052 2.854-.73 6.242-1.823 7.052-2.633.592-.59.917-1.373.917-2.209a3.118 3.118 0 00-3.125-3.123zm-2.946.178h.021-.02zm1.904 39.404c-.23 0-.462-.077-.65-.227L25 37.792l-4.558 3.646a1.04 1.04 0 01-1.692-.813V23.958a1.042 1.042 0 012.083 0v14.498l3.517-2.812a1.043 1.043 0 011.302 0l3.515 2.812V23.958a1.042 1.042 0 012.083 0v16.667a1.045 1.045 0 01-1.042 1.042z"/></g><defs><clipPath id="fclip0"><path d="M0 0h50v50H0z"/></clipPath></defs></symbol><symbol viewBox="0 0 18 28" id="location" xmlns="http://www.w3.org/2000/svg"><path d="M9 0C4.037 0 0 4.549 0 10.14c0 6.94 8.054 17.127 8.397 17.557a.752.752 0 001.206 0C9.946 27.267 18 17.08 18 10.141 18 4.548 13.963 0 9 0zm0 15.242c-2.497 0-4.528-2.288-4.528-5.102 0-2.813 2.031-5.1 4.528-5.1 2.497 0 4.528 2.288 4.528 5.102 0 2.813-2.031 5.101-4.528 5.101z"/></symbol><symbol viewBox="0 0 20 20" id="lock" xmlns="http://www.w3.org/2000/svg"><path fill-rule="evenodd" clip-rule="evenodd" d="M10 20C4.477 20 0 15.523 0 10S4.477 0 10 0s10 4.477 10 10-4.477 10-10 10zm0-1.819a8.182 8.182 0 100-16.364 8.182 8.182 0 000 16.364zm4.545-9.09H10.91V4.546H9.091v6.363h5.454V9.091z"/></symbol><symbol viewBox="0 0 512 512" id="mail" xmlns="http://www.w3.org/2000/svg"><path d="M511.695 105.876L331.709 255.751 512 375.738V109.254c0-1.152-.119-2.276-.305-3.378zM315.48 269.264l-22.689 18.893c-10.659 8.876-23.725 13.314-36.79 13.314s-26.132-4.438-36.79-13.314l-22.689-18.893L0 400.053v2.694c0 11.161 9.081 20.242 20.242 20.242h471.515c11.161 0 20.242-9.081 20.242-20.242v-2.694L315.48 269.264z"/><path d="M491.832 89.012H20.168c-2.858.011-4.095 3.652-1.899 5.481L203.55 248.777l.066.055 28.547 23.771c13.812 11.502 33.863 11.502 47.675 0l213.893-178.11c2.196-1.83.958-5.471-1.899-5.481zM.305 105.876A20.225 20.225 0 000 109.254v266.484L180.291 255.75.305 105.876z"/></symbol><symbol viewBox="0 0 14 14" id="phone" xmlns="http://www.w3.org/2000/svg"><path d="M12.877 9.19a7.948 7.948 0 01-2.497-.398c-.39-.134-.87-.011-1.11.234l-1.574 1.188c-1.825-.974-2.95-2.099-3.91-3.91L4.938 4.77c.3-.299.407-.736.278-1.146a7.96 7.96 0 01-.4-2.5A1.12 1.12 0 003.695 0h-2.57C.503 0 0 .504 0 1.123 0 8.223 5.776 14 12.877 14c.619 0 1.123-.504 1.123-1.123v-2.564c0-.62-.504-1.124-1.123-1.124z"/></symbol><symbol viewBox="0 0 19 20" id="search" xmlns="http://www.w3.org/2000/svg"><path d="M18.767 18.58L14.2 13.77a8.673 8.673 0 001.814-5.342C16.014 3.776 12.428 0 8.007 0 3.583 0 0 3.776 0 8.429c0 4.653 3.583 8.428 8.007 8.428a7.724 7.724 0 005.072-1.906l4.568 4.804c.31.327.81.327 1.12 0a.859.859 0 000-1.175zm-10.76-3.4c-3.54 0-6.417-3.029-6.417-6.751 0-3.723 2.877-6.756 6.417-6.756 3.537 0 6.418 3.033 6.418 6.756 0 3.722-2.882 6.75-6.418 6.75z"/></symbol><symbol viewBox="0 0 10 10" id="telegram" xmlns="http://www.w3.org/2000/svg"><path d="M3.924 6.325l-.166 2.327c.237 0 .34-.101.462-.224l1.11-1.06 2.3 1.684c.42.235.718.111.832-.388L9.97 1.592c.134-.624-.225-.867-.636-.714L.465 4.274c-.606.235-.597.572-.104.725l2.268.706 5.268-3.297c.248-.164.473-.073.288.091L3.924 6.325z"/></symbol></svg>